---
title: 新宝岛康乐队.2021-剪剪花【新乐团】【WAV+CUE】
date: 2023-08-24 07:15:54
categories: WAV车载音乐、镜像
tags: 华语中文
---
# 新宝岛康乐队.2021-剪剪花【新乐团】【WAV+CUE】

REM GENRE Pop
REM DATE 2021
REM DISCID B60E300D
REM COMMENT "ExactAudioCopy v1.6"
CATALOG 4710149685742
PERFORMER "新宝岛康乐队"
TITLE "剪剪花"
REM COMPOSER ""
FILE "新宝岛康乐队 - 剪剪花.wav" WAVE
TRACK 01 AUDIO
TITLE "阿喜A车车"
PERFORMER "新宝岛康乐队"
REM COMPOSER ""
ISRC TWB832111101
INDEX 01 00:00:00
TRACK 02 AUDIO
TITLE "现实的女性"
PERFORMER "新宝岛康乐队"
REM COMPOSER ""
ISRC TWB832111102
INDEX 00 04:42:29
INDEX 01 04:44:29
TRACK 03 AUDIO
TITLE "青春飞走了"
PERFORMER "新宝岛康乐队"
REM COMPOSER ""
ISRC TWB832111103
INDEX 00 10:12:64
INDEX 01 10:14:64
TRACK 04 AUDIO
TITLE "vavayan(女孩)"
PERFORMER "新宝岛康乐队"
REM COMPOSER ""
ISRC TWB832111104
INDEX 00 16:34:52
INDEX 01 16:36:52
TRACK 05 AUDIO
TITLE "吊桥"
PERFORMER "新宝岛康乐队"
REM COMPOSER ""
ISRC TWB832111105
INDEX 00 21:43:29
INDEX 01 21:45:29
TRACK 06 AUDIO
TITLE "三湾恋曲"
PERFORMER "新宝岛康乐队"
REM COMPOSER ""
ISRC TWB832111106
INDEX 00 28:21:69
INDEX 01 28:23:69
TRACK 07 AUDIO
TITLE "剪剪花"
PERFORMER "新宝岛康乐队"
REM COMPOSER ""
ISRC TWB832111107
INDEX 00 33:57:70
INDEX 01 33:59:70
TRACK 08 AUDIO
TITLE "承蒙你"
PERFORMER "新宝岛康乐队"
REM COMPOSER ""
ISRC TWB832111108
INDEX 00 35:34:30
INDEX 01 35:36:30
TRACK 09 AUDIO
TITLE "仙山苦命郎"
PERFORMER "新宝岛康乐队"
REM COMPOSER ""
ISRC TWB832111109
INDEX 00 39:19:53
INDEX 01 39:21:53
TRACK 10 AUDIO
TITLE "戚心"
PERFORMER "新宝岛康乐队"
REM COMPOSER ""
ISRC TWB832111110
INDEX 00 44:40:69
INDEX 01 44:42:69
TRACK 11 AUDIO
TITLE "做得没"
PERFORMER "新宝岛康乐队"
REM COMPOSER ""
ISRC TWB832111111
INDEX 00 50:30:27
INDEX 01 50:32:27
TRACK 12 AUDIO
TITLE "海洋之心"
PERFORMER "新宝岛康乐队"
REM COMPOSER ""
ISRC TWB832111112
INDEX 00 54:13:70
INDEX 01 54:15:70
TRACK 13 AUDIO
TITLE "牡丹"
PERFORMER "新宝岛康乐队"
REM COMPOSER ""
ISRC TWB832111113
INDEX 00 59:03:53
INDEX 01 59:05:53
新宝岛康乐队.2021 - 剪剪花【新乐团】【WAV+CUE】.rar: https://url27.ctfile.com/f/9388027-923843925-8af64a?p=559675
(访问密码: 559675)
原文：[链接](https://blog.sina.com.cn/s/blog_1647c7e7601031380.html)